<svg aria-hidden="true" style="position: absolute; width: 0; height: 0; overflow: hidden;" version="1.1" xmlns="http://www.w3.org/2000/svg" xmlns:xlink="http://www.w3.org/1999/xlink">
<defs>
<symbol id="icon-email" viewBox="0 0 14 18">
<path d="M11.25 4.5h-9c-0.619 0-1.119 0.506-1.119 1.125l-0.006 6.75c0 0.619 0.506 1.125 1.125 1.125h9c0.619 0 1.125-0.506 1.125-1.125v-6.75c0-0.619-0.506-1.125-1.125-1.125zM11.025 6.891l-3.977 2.486c-0.18 0.112-0.416 0.112-0.596 0l-3.977-2.486c-0.141-0.090-0.225-0.242-0.225-0.405 0-0.377 0.411-0.602 0.731-0.405l3.769 2.357 3.769-2.357c0.321-0.197 0.731 0.028 0.731 0.405 0 0.163-0.084 0.315-0.225 0.405z"></path>
</symbol>
<symbol id="icon-person" viewBox="0 0 18 18">
<path d="M9 9c1.657 0 3-1.342 3-3s-1.342-3-3-3c-1.657 0-3 1.342-3 3s1.342 3 3 3zM9 10.5c-2.003 0-6 1.005-6 3v0.75c0 0.413 0.337 0.75 0.75 0.75h10.5c0.413 0 0.75-0.338 0.75-0.75v-0.75c0-1.995-3.997-3-6-3z"></path>
</symbol>
<symbol id="icon-phone" viewBox="0 0 14 18">
<path d="M11.045 10.399l-1.379-0.157c-0.331-0.038-0.657 0.076-0.89 0.309l-0.999 0.999c-1.536-0.782-2.795-2.035-3.577-3.577l1.004-1.004c0.233-0.233 0.347-0.559 0.309-0.89l-0.157-1.368c-0.065-0.548-0.526-0.961-1.080-0.961h-0.939c-0.613 0-1.124 0.51-1.086 1.124 0.288 4.635 3.995 8.337 8.624 8.624 0.613 0.038 1.124-0.472 1.124-1.085v-0.939c0.005-0.548-0.407-1.009-0.955-1.075z"></path>
</symbol>
</defs>
</svg>
